<svg width="25" height="25" viewBox="0 0 25 25" fill="none" xmlns="http://www.w3.org/2000/svg">
<path d="M0 0H6.06593V6.06593" transform="translate(2.63599 8.05469) rotate(-90)" stroke="white" stroke-width="2" stroke-linecap="round" stroke-linejoin="round"/>
<path d="M0 0H6.06593V6.06593" transform="translate(22.8557 16.1426) rotate(90)" stroke="white" stroke-width="2" stroke-linecap="round" stroke-linejoin="round"/>
<path d="M0 0.657999L8.55329 5.33776e-05" transform="translate(3.13574 1.56055) rotate(49.3987)" stroke="white" stroke-width="2" stroke-linecap="round"/>
<path d="M-2.00661e-05 0.657956L8.55326 0" transform="translate(17.2896 15.7148) rotate(49.3987)" stroke="white" stroke-width="2" stroke-linecap="round"/>
<path d="M0 0H6.06593V6.06593" transform="translate(16.7903 1.98926)" stroke="white" stroke-width="2" stroke-linecap="round" stroke-linejoin="round"/>
<path d="M0 0H6.06593V6.06593" transform="translate(8.70239 22.209) rotate(180)" stroke="white" stroke-width="2" stroke-linecap="round" stroke-linejoin="round"/>
<path d="M0 0.657999L8.55329 5.33776e-05" transform="translate(23.2842 2.48926) rotate(139.399)" stroke="white" stroke-width="2" stroke-linecap="round"/>
<path d="M-2.00661e-05 0.657956L8.55326 0" transform="translate(9.13037 16.6426) rotate(139.399)" stroke="white" stroke-width="2" stroke-linecap="round"/>
</svg>
