<svg width="23" height="24" viewBox="0 0 23 24" fill="none" xmlns="http://www.w3.org/2000/svg">
<path d="M2.75724 5.51448C4.28002 5.51448 5.51448 4.28002 5.51448 2.75724C5.51448 1.23446 4.28002 0 2.75724 0C1.23446 0 0 1.23446 0 2.75724C0 4.28002 1.23446 5.51448 2.75724 5.51448Z" transform="translate(8.41772 9.3418)" stroke="white" stroke-width="2" stroke-linecap="round" stroke-linejoin="round"/>
<path d="M16.9111 12.8671C16.7887 13.1443 16.7522 13.4518 16.8063 13.75C16.8603 14.0481 17.0025 14.3232 17.2144 14.5398L17.2695 14.595C17.4404 14.7657 17.576 14.9684 17.6685 15.1916C17.761 15.4147 17.8086 15.6539 17.8086 15.8955C17.8086 16.137 17.761 16.3762 17.6685 16.5994C17.576 16.8225 17.4404 17.0253 17.2695 17.196C17.0988 17.3669 16.8961 17.5025 16.6729 17.595C16.4498 17.6875 16.2106 17.7351 15.969 17.7351C15.7274 17.7351 15.4882 17.6875 15.2651 17.595C15.0419 17.5025 14.8392 17.3669 14.6685 17.196L14.6134 17.1408C14.3968 16.9289 14.1216 16.7868 13.8235 16.7328C13.5253 16.6787 13.2178 16.7152 12.9406 16.8375C12.6688 16.954 12.437 17.1475 12.2737 17.3941C12.1104 17.6406 12.0227 17.9296 12.0216 18.2253V18.3816C12.0216 18.8691 11.8279 19.3366 11.4832 19.6814C11.1384 20.0261 10.6709 20.2197 10.1834 20.2197C9.69589 20.2197 9.22834 20.0261 8.88362 19.6814C8.5389 19.3366 8.34524 18.8691 8.34524 18.3816V18.2989C8.33812 17.9947 8.23965 17.6996 8.06263 17.4521C7.88561 17.2046 7.63822 17.0161 7.35263 16.9111C7.07542 16.7887 6.76792 16.7522 6.46978 16.8063C6.17163 16.8603 5.89652 17.0025 5.67991 17.2144L5.62476 17.2695C5.45405 17.4404 5.25132 17.576 5.02817 17.6685C4.80502 17.761 4.56583 17.8086 4.32427 17.8086C4.08271 17.8086 3.84351 17.761 3.62036 17.6685C3.39721 17.576 3.19449 17.4404 3.02377 17.2695C2.85287 17.0988 2.71728 16.8961 2.62478 16.6729C2.53228 16.4498 2.48466 16.2106 2.48466 15.969C2.48466 15.7274 2.53228 15.4882 2.62478 15.2651C2.71728 15.0419 2.85287 14.8392 3.02377 14.6685L3.07892 14.6134C3.2908 14.3968 3.43293 14.1216 3.48699 13.8235C3.54105 13.5253 3.50455 13.2178 3.38221 12.9406C3.26571 12.6688 3.07226 12.437 2.82568 12.2737C2.5791 12.1104 2.29015 12.0227 1.9944 12.0216H1.83816C1.35065 12.0216 0.883106 11.8279 0.538384 11.4832C0.193663 11.1384 0 10.6709 0 10.1834C0 9.69589 0.193663 9.22834 0.538384 8.88362C0.883106 8.5389 1.35065 8.34524 1.83816 8.34524H1.92088C2.22509 8.33812 2.52012 8.23965 2.76762 8.06263C3.01513 7.88561 3.20365 7.63822 3.30868 7.35263C3.43103 7.07542 3.46752 6.76792 3.41346 6.46978C3.35941 6.17163 3.21727 5.89652 3.00539 5.67991L2.95024 5.62476C2.77934 5.45405 2.64376 5.25132 2.55125 5.02817C2.45875 4.80502 2.41114 4.56583 2.41114 4.32427C2.41114 4.08271 2.45875 3.84351 2.55125 3.62036C2.64376 3.39721 2.77934 3.19449 2.95024 3.02377C3.12096 2.85287 3.32369 2.71728 3.54684 2.62478C3.76999 2.53228 4.00918 2.48466 4.25074 2.48466C4.4923 2.48466 4.7315 2.53228 4.95465 2.62478C5.1778 2.71728 5.38052 2.85287 5.55124 3.02377L5.60638 3.07892C5.82299 3.2908 6.09811 3.43293 6.39625 3.48699C6.69439 3.54105 7.0019 3.50455 7.27911 3.38221H7.35263C7.62447 3.26571 7.8563 3.07226 8.0196 2.82568C8.1829 2.5791 8.27053 2.29015 8.27171 1.9944V1.83816C8.27171 1.35065 8.46538 0.883106 8.8101 0.538384C9.15482 0.193663 9.62236 0 10.1099 0C10.5974 0 11.0649 0.193663 11.4096 0.538384C11.7544 0.883106 11.948 1.35065 11.948 1.83816V1.92088C11.9492 2.21662 12.0368 2.50557 12.2001 2.75215C12.3634 2.99873 12.5953 3.19218 12.8671 3.30868C13.1443 3.43103 13.4518 3.46752 13.75 3.41346C14.0481 3.35941 14.3232 3.21727 14.5398 3.00539L14.595 2.95024C14.7657 2.77934 14.9684 2.64376 15.1916 2.55125C15.4147 2.45875 15.6539 2.41114 15.8955 2.41114C16.137 2.41114 16.3762 2.45875 16.5994 2.55125C16.8225 2.64376 17.0253 2.77934 17.196 2.95024C17.3669 3.12096 17.5025 3.32369 17.595 3.54684C17.6875 3.76999 17.7351 4.00918 17.7351 4.25074C17.7351 4.4923 17.6875 4.7315 17.595 4.95465C17.5025 5.1778 17.3669 5.38052 17.196 5.55124L17.1408 5.60638C16.9289 5.82299 16.7868 6.09811 16.7328 6.39625C16.6787 6.69439 16.7152 7.0019 16.8375 7.27911V7.35263C16.954 7.62447 17.1475 7.8563 17.3941 8.0196C17.6406 8.1829 17.9296 8.27053 18.2253 8.27171H18.3816C18.8691 8.27171 19.3366 8.46538 19.6814 8.8101C20.0261 9.15482 20.2197 9.62236 20.2197 10.1099C20.2197 10.5974 20.0261 11.0649 19.6814 11.4096C19.3366 11.7544 18.8691 11.948 18.3816 11.948H18.2989C18.0031 11.9492 17.7142 12.0368 17.4676 12.2001C17.221 12.3634 17.0276 12.5953 16.9111 12.8671V12.8671Z" transform="translate(1.06543 1.98926)" stroke="white" stroke-width="2" stroke-miterlimit="10"/>
</svg>
